# xmcd
#
# Track frame offsets: 
#        150
#        17688
#        34639
#        52293
#        61387
#        83485
#        93320
#        116178
#        131951
#        148302
#        164946
#        177039
#        194996
#        211577
#        232585
#        249983
#        265422
#        277517
#        294154
#        309392
#
# Disc length: 4363 seconds
#
# Revision: 0
# Processed by: cddbd v1.5.2PL0 Copyright (c) Steve Scherf et al.
# Submitted via: ExactAudioCopy v1.0b3
#
DISCID=21110914
DTITLE=Mary Duff - Very Best Of
DYEAR=1999
DGENRE=Country
TTITLE0=Yellow Roses
TTITLE1=Secret Love
TTITLE2=Silver And Gold
TTITLE3=Come On In
TTITLE4=The Fields Of Athenry
TTITLE5=Heartaches By The Number
TTITLE6=The Power Of Love
TTITLE7=Daddy's Hands
TTITLE8=A Picture Of Me
TTITLE9=Amazing Grace
TTITLE10=Wounded Hearts
TTITLE11=Somewhere Between
TTITLE12=When You're Not A Dream
TTITLE13=White Rose Of Athens
TTITLE14=Homeland
TTITLE15=Fall In Love Again
TTITLE16=Crazy
TTITLE17=Beautiful Meath
TTITLE18=Forever And Ever Amen
TTITLE19=Cliffs Of Dooneen
EXTD=
EXTT0=
EXTT1=
EXTT2=
EXTT3=
EXTT4=
EXTT5=
EXTT6=
EXTT7=
EXTT8=
EXTT9=
EXTT10=
EXTT11=
EXTT12=
EXTT13=
EXTT14=
EXTT15=
EXTT16=
EXTT17=
EXTT18=
EXTT19=
PLAYORDER=
